<?xml version="1.0" encoding="utf-8"?>
<!-- Generator: Adobe Illustrator 27.9.1, SVG Export Plug-In . SVG Version: 6.00 Build 0)  -->
<svg version="1.1" id="Layer_1" xmlns="http://www.w3.org/2000/svg" xmlns:xlink="http://www.w3.org/1999/xlink" x="0px" y="0px"
	 viewBox="0 0 950 175" style="enable-background:new 0 0 950 175;" xml:space="preserve">
<style type="text/css">
	.st0{fill:none;stroke:#9B9B9B;stroke-miterlimit:10;}
	.st1{fill:none;stroke:#EDEDED;stroke-width:1.8844;stroke-miterlimit:10;}
</style>
<polyline class="st0" points="91.4,68.1 50.9,68.1 50.9,135.1 50.9,154.1 50.9,166.3 "/>
<path class="st0" d="M222.6,135.1l36.4-21.4l42.7-16.2l41.1-13.7h4l51.8-24.9c0,0,7.9-1.1,10.7,0s24.9,14,24.9,14l33.6,14.6
	L500.3,99l19-0.7l7.5,3.4l31.3,19.1c0,0,27.3,11.2,37.6,12.3l48.9,21.1l15.9,8.7l15.1,3.4"/>
<polyline class="st0" points="140.2,154.1 140.2,135.1 141.1,76.4 137.4,76.3 137.4,68.1 91.4,68.1 91.4,57.5 90.3,57.1 75.9,51.7 
	75.9,49.4 64.4,40 52.1,40 39.1,49.7 39.1,51.9 24.4,56.6 24.4,85.4 20.9,85.4 20.9,114.8 16.1,114.8 16.1,135.1 16.1,152 
	16.1,166.3 "/>
<polyline class="st1" points="394.4,82.6 388,82.6 390.8,82.6 395,76.4 403.7,76.4 405.1,82.6 407.3,82.6 401.8,82.6 405.1,82.6 
	405.1,81.8 403.1,76.4 400.9,70.2 403,70.2 398.4,70.2 396.9,70.2 "/>
<line class="st1" x1="395.3" y1="76" x2="398" y2="70"/>
<g>
	<polyline id="bb3_00000101068512104669214520000015733385442782017459_" class="st0" points="149.4,166.3 149.4,154.1 149.4,135.1 
		149.4,79.5 147.6,79.5 147.6,69.5 159.1,69.5 159.1,68.1 166.2,68.1 166.2,66.6 198.7,66.6 198.7,70.1 224.7,70.1 224.7,80.8 
		222.6,80.8 222.6,135.1 222.6,154.1 222.6,166.3 	"/>
	<polyline class="st0" points="196.2,66.6 196.2,25.3 196.2,20.1 	"/>
	<line class="st0" x1="192.2" y1="66.6" x2="192.2" y2="59.1"/>
</g>
<line class="st0" x1="10.7" y1="166.3" x2="939.3" y2="166.3"/>
<line class="st0" x1="140.2" y1="153.6" x2="140.2" y2="166.3"/>
<line class="st0" x1="149.4" y1="79.5" x2="158.7" y2="79.5"/>
<path class="st0" d="M222.6,80.8"/>
</svg>
